HIERARCHY
ROOT Hips
{
     OFFSET 1.88212 96.90440 -13.34250
     CHANNELS 6 Xposition Yposition Zposition Zrotation Xrotation Yrotation
     JOINT Spine
     {
          OFFSET 0.00000 11.89050 0.00000
          CHANNELS 3 Zrotation Xrotation Yrotation
          JOINT Spine1
          {
               OFFSET -0.00000 25.65740 0.12766
               CHANNELS 3 Zrotation Xrotation Yrotation
               JOINT HEad
               {
                    OFFSET 0.00000 8.73416 0.01134
                    CHANNELS 3 Zrotation Xrotation Yrotation
                    End Site
                    {
                         OFFSET -0.29000 12.77420 2.51395
                    }
               }
               JOINT LeftShoulder1
               {
                    OFFSET 8.99000 -0.36225 -0.22000
                    CHANNELS 3 Zrotation Xrotation Yrotation
                    JOINT LeftArm
                    {
                         OFFSET 10.28270 -0.00338 0.32212
                         CHANNELS 3 Zrotation Xrotation Yrotation
                         JOINT LeftForeArm
                         {
                              OFFSET 32.76690 0.09914 -1.42434
                              CHANNELS 3 Zrotation Xrotation Yrotation
                              JOINT LeftHand
                              {
                                   OFFSET 27.56430 0.08536 1.02216
                                   CHANNELS 3 Zrotation Xrotation Yrotation
                                   End Site
                                   {
                                        OFFSET 16.74430 -0.60000 1.50291
                                   }
                              }
                         }
                    }
               }
               JOINT RightShoulder
               {
                    OFFSET -8.99000 -0.36225 -0.22000
                    CHANNELS 3 Zrotation Xrotation Yrotation
                    JOINT RightArm
                    {
                         OFFSET -10.28270 -0.00338 0.32212
                         CHANNELS 3 Zrotation Xrotation Yrotation
                         JOINT RightForeArm
                         {
                              OFFSET -32.89710 0.09914 -1.42434
                              CHANNELS 3 Zrotation Xrotation Yrotation
                              JOINT RightHand
                              {
                                   OFFSET -27.49210 0.08536 1.02216
                                   CHANNELS 3 Zrotation Xrotation Yrotation
                                   End Site
                                   {
                                        OFFSET -16.63120 -0.60000 1.50291
                                   }
                              }
                         }
                    }
               }
          }
     }
     JOINT LeftUpLeg
     {
          OFFSET 8.94580 -8.66707 0.10165
          CHANNELS 3 Zrotation Xrotation Yrotation
          JOINT LeftLeg
          {
               OFFSET 0.00000 -44.42270 1.37270
               CHANNELS 3 Zrotation Xrotation Yrotation
               JOINT LeftFoot
               {
                    OFFSET -0.25355 -42.09240 -1.46059
                    CHANNELS 3 Zrotation Xrotation Yrotation
                    JOINT LeftToes
                    {
                         OFFSET -0.04000 -4.41509 8.49910
                         CHANNELS 3 Zrotation Xrotation Yrotation
                         End Site
                         {
                              OFFSET 0.08000 -0.04745 9.77979
                         }
                    }
               }
          }
     }
     JOINT RightUpLeg
     {
          OFFSET -8.94580 -8.66707 0.10165
          CHANNELS 3 Zrotation Xrotation Yrotation
          JOINT RightLeg
          {
               OFFSET 0.00000 -44.42270 1.37270
               CHANNELS 3 Zrotation Xrotation Yrotation
               JOINT RightFoot
               {
                    OFFSET 0.25355 -42.09240 -1.46059
                    CHANNELS 3 Zrotation Xrotation Yrotation
                    JOINT RightToes
                    {
                         OFFSET 0.04000 -4.41509 8.49910
                         CHANNELS 3 Zrotation Xrotation Yrotation
                         End Site
                         {
                              OFFSET -0.08000 -0.13745 9.77979
                         }
                    }
               }
          }
     }
}
MOTION
Frames: 15
Frame Time: 0.01667
171.29636 93.32178 479.91138 -11.97220 -6.33663 -51.66321 -2.25873 25.09955 -1.70635 -0.00118 0.00616 -0.00761 -8.84168 16.85265 9.45898 0.28678 9.32193 -1.14572 -118.70413 -52.48317 -95.79382 -8.82890 57.05879 -104.29030 17.47055 12.37947 -5.12163 17.98129 9.48893 -6.27502 83.63551 -3.38146 67.47413 -11.68173 27.87012 124.78424 15.52789 7.32225 9.23493 13.32691 -3.17683 -0.91842 -22.94987 6.48318 48.78738 -8.93441 -0.00153 0.00569 20.35028 -13.55627 -68.65163 -27.00939 0.73927 21.75723 43.07985 19.86658 -40.05630 -24.37029 0.01595 -0.00597 7.41943 -27.85363 9.53592 
170.95572 93.76231 479.94849 -11.82568 -6.24001 -51.19897 -2.65132 25.20619 -1.49981 -0.00105 0.00472 -0.00648 -10.23348 19.02144 9.93074 0.44626 9.16027 -1.09082 -129.24719 -52.52314 -103.16877 -8.40647 62.70999 -106.05532 17.16703 11.31235 -4.71678 17.73779 9.40739 -5.89411 84.03288 -3.65420 68.61439 -14.00008 26.16112 124.29521 15.09979 4.83451 10.18707 12.97966 -2.72689 -3.38696 -21.89613 5.10668 49.90888 -9.91845 -0.00292 0.00629 20.87188 -12.67584 -67.98567 -26.99926 1.29967 21.84288 42.87172 19.36929 -39.73538 -23.85198 0.01518 -0.00218 7.01552 -27.40639 8.98763 
170.61220 94.18562 479.88593 -11.67710 -6.14117 -50.82468 -3.05569 25.27389 -1.24427 -0.00072 0.00399 -0.00567 -11.49952 21.01039 10.44903 0.54217 8.96602 -0.88207 -136.03093 -51.90049 -107.87431 -7.87885 66.34717 -107.66440 16.83956 11.56270 -4.39780 17.61534 9.27246 -5.53438 84.34785 -3.80707 69.90462 -15.05111 25.10963 123.25434 15.16755 4.61646 10.40468 12.70334 -2.39546 -5.68677 -20.79660 3.93257 50.98358 -10.89283 -0.00381 0.00629 21.35666 -11.82030 -67.28192 -26.91549 2.04359 21.95605 42.34443 18.31160 -39.29543 -23.36807 0.00642 0.00233 6.71365 -26.66150 8.56355 
170.27119 94.51968 479.72589 -11.51815 -6.06728 -50.53325 -3.48459 25.30224 -0.94727 0.00007 0.00437 -0.00501 -12.64732 22.81156 10.99333 0.60418 8.77918 -0.66833 -140.13503 -51.09444 -110.50406 -6.54360 68.86347 -109.92841 15.93867 11.25010 -4.10380 17.60848 9.12493 -5.13714 84.58150 -3.85952 71.15486 -15.63657 24.65112 121.93023 15.37806 4.02382 10.38732 12.45560 -2.17040 -7.81157 -19.70300 2.98466 52.01525 -11.84151 -0.00431 0.00580 21.81044 -11.01679 -66.55040 -26.69810 2.96623 22.09704 41.49212 16.75659 -38.81020 -22.93253 0.00648 0.00140 6.18321 -25.91276 8.18255 
169.93498 94.74008 479.47351 -11.34489 -6.03556 -50.31723 -3.94744 25.29438 -0.62351 -0.00003 0.00486 -0.00533 -13.67929 24.41547 11.55472 0.65541 8.63040 -0.52770 -142.49535 -50.36218 -111.85199 -4.83554 70.41553 -112.26968 16.06111 11.42401 -3.25382 17.57540 9.00887 -4.75310 84.83516 -3.79539 72.29048 -15.95475 24.51714 120.58093 15.35723 4.61368 10.36687 12.21699 -2.04142 -9.75627 -18.66285 2.27179 53.00224 -12.75455 -0.00453 0.00499 22.23331 -10.33426 -65.81657 -26.36485 4.03654 22.26029 40.38031 14.85735 -38.33804 -22.50322 0.00636 0.00003 5.54383 -25.08085 7.93060 
169.60304 94.85813 479.13614 -11.15995 -6.05275 -50.16825 -4.44393 25.25656 -0.28944 -0.00044 0.00523 -0.00592 -14.59814 25.81390 12.12459 0.70554 8.52566 -0.45902 -143.74326 -49.79827 -112.48107 -3.37136 71.17796 -114.07842 15.74345 11.21842 -2.78520 17.46736 8.93671 -4.39115 85.12952 -3.64564 73.27296 -16.12037 24.55984 119.30566 15.48459 4.81835 10.16681 11.98794 -1.99705 -11.51702 -17.71262 1.78752 53.93984 -13.62751 -0.00449 0.00409 22.63219 -9.81010 -65.10686 -25.96132 5.21313 22.43623 39.09293 12.74797 -37.91877 -22.04997 0.00601 -0.00133 4.74256 -24.38516 7.77069 
169.27467 94.90195 478.72345 -10.97107 -6.11762 -50.07686 -4.96531 25.19670 0.04049 -0.00084 0.00544 -0.00638 -15.40608 27.00385 12.69257 0.75321 8.45461 -0.43983 -144.27982 -49.42053 -112.74023 -2.59900 71.32540 -114.91459 15.83372 11.26412 -2.15871 17.30984 8.89750 -4.06373 85.42428 -3.44155 74.08205 -16.17554 24.67325 118.15240 15.44174 5.55293 10.00702 11.78030 -2.02363 -13.09221 -16.87526 1.51493 54.82303 -14.45940 -0.00420 0.00328 23.00689 -9.46408 -64.44307 -25.53305 6.45447 22.61325 37.71488 10.52979 -37.57825 -21.55767 0.00581 -0.00247 3.83269 -23.80816 7.73858 
168.94966 94.90030 478.24722 -10.78837 -6.22436 -50.03308 -5.49971 25.12356 0.35608 -0.00115 0.00557 -0.00653 -16.10283 27.98833 13.24516 0.77980 8.40769 -0.44469 -144.35959 -49.21858 -112.82914 -2.59684 71.03339 -114.72852 15.58928 11.04720 -1.86436 17.14818 8.87729 -3.78256 85.67282 -3.20545 74.71056 -16.14659 24.80198 117.13163 15.49620 5.96581 9.75563 11.60914 -2.10674 -14.48468 -16.16328 1.43242 55.64822 -15.24971 -0.00370 0.00261 23.34690 -9.26759 -63.83392 -25.11555 7.72274 22.78025 36.32458 8.28197 -37.33131 -21.02363 0.00570 -0.00335 2.82446 -23.39241 7.81254 
168.62842 94.87313 477.72043 -10.62208 -6.36562 -50.02711 -6.03528 25.04631 0.65049 -0.00135 0.00572 -0.00643 -16.68612 28.77556 13.76774 0.77628 8.38147 -0.46131 -144.16901 -49.16003 -112.86325 -3.16019 70.46438 -113.75519 15.49719 10.95209 -1.55572 17.00915 8.86999 -3.55439 85.85452 -2.95120 75.16241 -16.04998 24.91969 116.24390 15.46230 6.60453 9.54571 11.48732 -2.23267 -15.70278 -15.58316 1.51699 56.41264 -15.99592 -0.00307 0.00207 23.63390 -9.17288 -63.27662 -24.73155 8.98410 22.92854 34.98994 6.07256 -37.18412 -20.45171 0.00559 -0.00392 1.74962 -23.11320 7.97326 
168.31169 94.83080 477.15588 -10.48134 -6.53419 -50.04968 -6.56131 24.97373 0.91896 -0.00143 0.00591 -0.00619 -17.15349 29.37740 14.24676 0.73346 8.37504 -0.48582 -143.84651 -49.21344 -112.89388 -3.93094 69.78373 -112.39159 15.18955 10.68060 -1.47475 16.89971 8.87474 -3.37388 85.97174 -2.69192 75.44942 -15.89942 25.01969 115.48177 15.50065 7.00885 9.28959 11.42349 -2.38886 -16.75944 -15.13775 1.74435 57.11388 -16.69206 -0.00237 0.00164 23.85789 -9.14728 -62.76456 -24.39261 10.21144 23.05288 33.76515 3.95473 -37.13384 -19.85147 0.00541 -0.00416 0.62862 -22.95788 8.19095 
168.00153 94.77644 476.56458 -10.37442 -6.72365 -50.09234 -7.07265 24.91109 1.16277 -0.00160 0.00593 -0.00584 -17.49748 29.81165 14.66893 0.56134 8.39327 -0.42953 -143.44827 -49.51064 -112.89803 -4.83036 69.05725 -111.10134 15.56883 10.55536 -1.56615 16.81498 8.89447 -3.22215 86.04350 -2.45179 75.59652 -15.70277 25.10327 114.82552 15.50517 7.52725 9.07109 11.42259 -2.56381 -17.67017 -14.82666 2.08878 57.75071 -17.32873 -0.00167 0.00127 24.02238 -9.18623 -62.29489 -24.10149 11.38455 23.15047 32.68991 1.96813 -37.17064 -19.23451 0.00514 -0.00408 -0.52102 -22.91337 8.45536 
167.70013 94.71069 475.95514 -10.30735 -6.92840 -50.14763 -7.55906 24.86406 1.37874 -0.00141 0.00618 -0.00554 -17.72072 30.09321 15.02694 0.36499 8.42958 -0.35306 -143.14250 -50.00145 -112.92271 -5.68799 68.38442 -110.01994 15.32461 10.33574 -1.63369 16.76200 8.92946 -3.08635 86.07001 -2.24097 75.62483 -15.48472 25.17141 114.26791 15.56092 7.92467 8.84361 11.48626 -2.74805 -18.45067 -14.64560 2.52380 58.32321 -17.89499 -0.00099 0.00097 24.13462 -9.29191 -61.86711 -23.85566 12.48881 23.21895 31.78972 0.14026 -37.28089 -18.61160 0.00479 -0.00374 -1.68987 -22.99696 8.77777 
167.40871 94.63488 475.33374 -10.28249 -7.14338 -50.20920 -8.01096 24.83595 1.56253 -0.00119 0.00650 -0.00531 -17.83050 30.23626 15.31926 0.18798 8.47879 -0.28130 -142.97243 -50.62439 -112.98035 -6.48231 67.78705 -109.12737 15.57548 10.17989 -1.80746 16.73404 8.97960 -2.94742 86.06084 -2.07070 75.55877 -15.27550 25.22292 113.80508 15.59394 8.40566 8.66212 11.61322 -2.93466 -19.11517 -14.58601 3.02371 58.83147 -18.38078 -0.00040 0.00074 24.19524 -9.45013 -61.47753 -23.65006 13.51372 23.25519 31.07700 -1.51151 -37.44975 -17.99043 0.00443 -0.00323 -2.86331 -23.23540 9.18728 
167.12766 94.55175 474.70514 -10.29820 -7.36363 -50.27192 -8.42106 24.82731 1.71030 -0.00101 0.00684 -0.00508 -17.83776 30.25349 15.54852 0.04024 8.53658 -0.22261 -142.92328 -51.31234 -113.06577 -7.19095 67.28172 -108.38628 15.44820 9.98744 -1.95337 16.72112 9.04359 -2.79306 86.02408 -1.94196 75.42548 -15.10556 25.25459 113.43272 15.63791 8.81918 8.49916 11.80014 -3.11937 -19.67654 -14.63579 3.56518 59.27453 -18.77863 0.00010 0.00061 24.19613 -9.62294 -61.11689 -23.47890 14.45169 23.25530 30.55363 -2.97758 -37.66219 -17.37467 0.00410 -0.00263 -4.01891 -23.64129 9.71200 
166.85701 94.46490 474.07333 -10.34980 -7.58397 -50.33224 -8.78524 24.83632 1.82116 -0.00095 0.00715 -0.00477 -17.75375 30.15718 15.71838 -0.08543 8.60067 -0.16360 -142.97458 -52.01383 -113.18057 -7.83809 66.86790 -107.74757 15.62122 9.85122 -2.15740 16.71298 9.11992 -2.62209 85.96569 -1.84502 75.25497 -14.99650 25.26345 113.14268 15.64502 9.26090 8.38878 12.04246 -3.30009 -20.14671 -14.78047 4.12832 59.65023 -19.08408 0.00048 0.00057 24.12514 -9.76053 -60.77327 -23.33646 15.29723 23.21611 30.21377 -4.25411 -37.90296 -16.76397 0.00382 -0.00203 -5.13360 -24.19552 10.35925 
